# xmcd
#
# Track frame offsets:
#	150
#	9849
#	41119
#	67759
#	87127
#	111991
#	121614
#	137932
#	152067
#	164106
#	205934
#	238137
#	278078
#	306934
#
# Disc length: 4449 seconds
#
# Revision: 1
# Processed by: cddbd v1.5.2PL0 Copyright (c) Steve Scherf et al.
# Submitted via: audiograbber 1.83.01
#
DISCID=bd115f0e
DTITLE=Grateful Dead - 78-01-10 Shrine Auditorium, Los Angeles CA
DYEAR=1900
DGENRE=
TTITLE0=Tuning
TTITLE1=Bertha
TTITLE2=Good Lovin'
TTITLE3=Dead Air - Tuning
TTITLE4=Brown Eyed Women
TTITLE5=Tuning
TTITLE6=Mexicali Blues
TTITLE7=Me and My Uncle
TTITLE8=Tuning
TTITLE9=Friend Of The Devil
TTITLE10=Cassidy
TTITLE11=Candyman
TTITLE12=Passenger
TTITLE13=Sunrise
EXTD=
EXTT0=
EXTT1=
EXTT2=
EXTT3=
EXTT4=
EXTT5=
EXTT6=
EXTT7=
EXTT8=
EXTT9=
EXTT10=
EXTT11=
EXTT12=
EXTT13=
PLAYORDER=
